<?xml version="1.0" encoding="utf-8"?>
<!-- Generator: Adobe Illustrator 27.2.0, SVG Export Plug-In . SVG Version: 6.00 Build 0)  -->
<svg version="1.1" id="Vrstva_1" xmlns="http://www.w3.org/2000/svg" xmlns:xlink="http://www.w3.org/1999/xlink" x="0px" y="0px"
	 viewBox="0 0 1066 160" style="enable-background:new 0 0 1066 160;" xml:space="preserve">
<style type="text/css">
	.st0{fill:#242424;}
	.st1{clip-path:url(#SVGID_00000096018561126703639530000008683524957954536881_);enable-background:new    ;}
	.st2{clip-path:url(#SVGID_00000116199941743805288850000006804957698505213621_);fill:#242424;}
	.st3{clip-path:url(#SVGID_00000116199941743805288850000006804957698505213621_);fill:#231F20;}
</style>
<polygon class="st0" points="0,34.49 0,157.37 88.3,157.37 88.3,132.97 27.04,132.97 27.04,34.49 "/>
<g>
	<defs>
		<rect id="SVGID_1_" width="1065.47" height="159.3"/>
	</defs>
	<clipPath id="SVGID_00000176020806153303532880000009975062600629843624_">
		<use xlink:href="#SVGID_1_"  style="overflow:visible;"/>
	</clipPath>
	<g style="clip-path:url(#SVGID_00000176020806153303532880000009975062600629843624_);enable-background:new    ;">
		<g>
			<defs>
				<rect id="SVGID_00000127027202352470134360000007011336159464091559_" width="1065.5" height="159.5"/>
			</defs>
			<clipPath id="SVGID_00000134240494532205774970000014971315139784714382_">
				<use xlink:href="#SVGID_00000127027202352470134360000007011336159464091559_"  style="overflow:visible;"/>
			</clipPath>
			<path style="clip-path:url(#SVGID_00000134240494532205774970000014971315139784714382_);fill:#242424;" d="M348.72,128.23
				c-2.52,6.91-6.12,12.67-10.8,17.29c-4.68,4.62-10.36,8.07-17.03,10.36c-6.67,2.28-14.11,3.42-22.3,3.42
				c-16.5,0-29.49-4.57-38.97-13.69c-9.48-9.13-14.22-22.76-14.22-40.9V34.49h27.04V104c0,10.07,2.34,17.64,7.02,22.73
				c4.68,5.09,11.17,7.64,19.48,7.64c8.31,0,14.8-2.46,19.49-7.37c4.68-4.91,7.02-12.29,7.02-22.12V34.49h27.03v69.34
				C352.49,113.19,351.23,121.33,348.72,128.23"/>
			
				<rect x="508.2" y="34.49" style="clip-path:url(#SVGID_00000134240494532205774970000014971315139784714382_);fill:#242424;" width="27.04" height="122.88"/>
			<polygon style="clip-path:url(#SVGID_00000134240494532205774970000014971315139784714382_);fill:#242424;" points="
				652.14,157.37 592.63,79.25 592.63,157.37 565.95,157.37 565.95,34.49 590.88,34.49 648.46,110.15 648.46,34.49 675.14,34.49 
				675.14,157.37 			"/>
			<path style="clip-path:url(#SVGID_00000134240494532205774970000014971315139784714382_);fill:#242424;" d="M790.14,137.27
				c-2.21,4.74-5.29,8.72-9.24,11.94c-3.95,3.22-8.67,5.68-14.15,7.37c-5.48,1.7-11.56,2.54-18.23,2.54
				c-9.36,0-18.55-1.61-27.56-4.83c-9.01-3.22-17.2-8.16-24.58-14.83l15.97-19.14c5.62,4.57,11.38,8.19,17.29,10.89
				c5.91,2.69,12.38,4.04,19.4,4.04c5.62,0,9.98-1.02,13.08-3.07c3.1-2.05,4.65-4.89,4.65-8.51v-0.35c0-1.75-0.32-3.3-0.97-4.65
				c-0.65-1.34-1.88-2.6-3.7-3.77c-1.82-1.17-4.34-2.34-7.57-3.51c-3.23-1.17-7.42-2.4-12.59-3.69c-6.22-1.52-11.85-3.22-16.9-5.09
				c-5.05-1.87-9.33-4.18-12.85-6.93c-3.52-2.75-6.25-6.17-8.19-10.27c-1.94-4.09-2.9-9.19-2.9-15.27v-0.35
				c0-5.62,1.05-10.68,3.14-15.18c2.09-4.51,5.03-8.4,8.81-11.67c3.78-3.27,8.29-5.79,13.54-7.55c5.24-1.75,11.03-2.63,17.35-2.63
				c9.01,0,17.29,1.35,24.84,4.04c7.55,2.69,14.48,6.56,20.8,11.59l-14.04,20.36c-5.5-3.74-10.88-6.7-16.15-8.87
				c-5.27-2.16-10.53-3.25-15.8-3.25c-5.27,0-9.22,1.03-11.85,3.07c-2.63,2.05-3.95,4.59-3.95,7.63v0.35c0,1.99,0.38,3.72,1.14,5.18
				c0.76,1.46,2.14,2.78,4.14,3.95c2,1.17,4.73,2.28,8.19,3.34c3.46,1.05,7.83,2.28,13.11,3.69c6.22,1.64,11.76,3.48,16.63,5.53
				c4.87,2.05,8.98,4.51,12.32,7.37c3.34,2.87,5.87,6.23,7.57,10.09c1.7,3.86,2.55,8.49,2.55,13.87v0.35
				C793.45,127.12,792.35,132.53,790.14,137.27"/>
			<polygon style="clip-path:url(#SVGID_00000134240494532205774970000014971315139784714382_);fill:#242424;" points="
				896.33,157.37 858.23,105.06 844.01,119.8 844.01,157.37 816.98,157.37 816.98,34.49 844.01,34.49 844.01,88.2 893.87,34.49 
				926.52,34.49 876.49,86.63 928.8,157.37 			"/>
			<polygon style="clip-path:url(#SVGID_00000134240494532205774970000014971315139784714382_);fill:#242424;" points="
				984.27,38.21 1003.03,0 1026.03,10 1010.35,28.19 			"/>
			<polygon style="clip-path:url(#SVGID_00000134240494532205774970000014971315139784714382_);fill:#242424;" points="
				1010.52,105.93 983.04,105.93 986.92,96.48 965.26,85.31 934.59,157.37 962.16,157.37 973.39,129.81 1020.21,129.81 			"/>
			<polygon style="clip-path:url(#SVGID_00000134240494532205774970000014971315139784714382_);fill:#242424;" points="
				175.72,33.61 150.79,33.61 98.13,157.37 125.69,157.37 136.92,129.81 182.88,129.81 173.45,105.93 146.58,105.93 162.9,66.09 
				200.12,157.37 228.38,157.37 			"/>
			<polygon style="clip-path:url(#SVGID_00000134240494532205774970000014971315139784714382_);fill:#231F20;" points="
				999.37,66.08 1037.36,157.68 1065.47,157.68 1012.52,34.39 981.97,46.04 968.02,79.74 989.56,90.86 			"/>
			<path style="clip-path:url(#SVGID_00000134240494532205774970000014971315139784714382_);fill:#242424;" d="M456.24,113.48
				c7.84-2.92,14.19-7.52,19.05-13.78c4.86-6.26,7.28-14.36,7.28-24.31v-0.35c0-12.75-4.07-22.7-12.2-29.84
				c-8.13-7.14-19.51-10.71-34.14-10.71h-56.18v122.88h27.04V58.89h26.86c6.67,0,11.88,1.46,15.62,4.39
				c3.74,2.93,5.62,7.32,5.62,13.17v0.35c0,5.27-1.79,9.48-5.36,12.64c-3.57,3.16-8.69,4.74-15.36,4.74h-21.8v23.88h15.66
				l26.33,39.32h31.6L456.24,113.48z"/>
		</g>
	</g>
</g>
</svg>
