<?xml version="1.0" encoding="utf-8"?>
<!-- Generator: Adobe Illustrator 16.0.0, SVG Export Plug-In . SVG Version: 6.00 Build 0)  -->
<!DOCTYPE svg PUBLIC "-//W3C//DTD SVG 1.1//EN" "http://www.w3.org/Graphics/SVG/1.1/DTD/svg11.dtd">
<svg version="1.1" id="Layer_1" xmlns="http://www.w3.org/2000/svg" xmlns:xlink="http://www.w3.org/1999/xlink" x="0px" y="0px"
	 width="295.667px" height="76.333px" viewBox="0 0 295.667 76.333" enable-background="new 0 0 295.667 76.333"
	 xml:space="preserve">
<g>
	<path fill="#90B43E" d="M28.618,54.249c-0.012-0.072-0.037-0.151-0.037-0.23V46.34c0-1.337-1.084-2.419-2.414-2.419H18.48
		c-0.604,0-1.155-0.221-1.572-0.595l-6.758,6.753c3.289,3.167,7.739,5.13,12.671,5.13C24.841,55.209,26.796,54.865,28.618,54.249"/>
	<path fill="#C4D82E" d="M30.298,3.529l-1.717,1.71L14.925,18.893L9.879,23.94l0.026,0.022c-1.721,1.724-3.111,3.769-4.042,6.063
		c-0.865,2.125-1.35,4.439-1.35,6.879c0,4.773,1.847,9.114,4.837,12.376c0.266,0.275,0.528,0.542,0.799,0.798l6.758-6.753
		c-0.287-0.251-0.527-0.57-0.67-0.933c-0.105-0.275-0.17-0.57-0.17-0.886V36.67v-0.406V33.83c0-1.337,1.08-2.419,2.412-2.419h7.687
		c1.33,0,2.415-1.084,2.415-2.42v-7.678c0-0.44,0.128-0.848,0.326-1.202c0.079-0.132,0.178-0.234,0.274-0.354
		c0.433-0.517,1.075-0.864,1.812-0.864h7.684C38.678,12.445,35.332,6.794,30.298,3.529"/>
	<path fill="#006B35" d="M46.867,20.13c-2.025,0-3.971,0.342-5.802,0.953c0.013,0.077,0.038,0.151,0.038,0.235v7.671
		c0,1.34,1.084,2.422,2.414,2.422h7.679c0.742,0,1.398,0.334,1.843,0.858l6.762-6.763C56.488,22.197,51.925,20.13,46.867,20.13"/>
	<path fill="#00AB57" d="M65.171,38.433c0-4.778-1.852-9.115-4.842-12.373c-0.175-0.189-0.353-0.366-0.529-0.551l-6.762,6.761
		c0.169,0.203,0.303,0.425,0.408,0.67c0.111,0.274,0.166,0.577,0.166,0.891v4.841v0.405v2.432c0,1.338-1.077,2.42-2.417,2.42h-7.679
		c-1.33,0-2.414,1.084-2.414,2.415v7.677c0,0.44-0.128,0.848-0.327,1.202c-0.078,0.13-0.177,0.24-0.277,0.354
		c-0.43,0.522-1.073,0.865-1.808,0.865h-7.686c0,6.443,3.346,12.104,8.381,15.363l1.717-1.712l13.653-13.651l5.049-5.05
		l-0.026-0.019c1.717-1.72,3.107-3.772,4.042-6.062C64.686,43.189,65.171,40.867,65.171,38.433"/>
	<path fill="#004892" d="M197.312,19.451c0,0.36,0.057,0.696,0.171,1.007c0.112,0.311,0.282,0.62,0.5,0.924
		c0.223,0.306,0.492,0.613,0.811,0.926c0.317,0.312,0.674,0.652,1.069,1.023c0.419-0.264,0.809-0.532,1.169-0.808
		c0.357-0.275,0.669-0.568,0.934-0.88c0.262-0.312,0.471-0.643,0.618-0.997c0.148-0.354,0.226-0.734,0.226-1.142
		c0-0.693-0.238-1.251-0.719-1.672c-0.479-0.416-1.157-0.626-2.029-0.626c-0.444,0-0.837,0.061-1.179,0.178
		c-0.341,0.121-0.628,0.282-0.86,0.486c-0.233,0.204-0.411,0.439-0.529,0.71C197.372,18.851,197.312,19.141,197.312,19.451
		 M199.234,35.168c0.827,0,1.656-0.126,2.486-0.377c0.833-0.252,1.627-0.64,2.383-1.168c-0.458-0.467-0.918-0.938-1.385-1.417
		c-0.467-0.481-0.927-0.953-1.383-1.42c-0.455-0.467-0.902-0.919-1.339-1.357c-0.438-0.436-0.847-0.853-1.23-1.247
		c-0.42,0.262-0.808,0.538-1.166,0.824c-0.359,0.288-0.669,0.596-0.926,0.918c-0.257,0.324-0.461,0.671-0.613,1.042
		c-0.147,0.371-0.222,0.771-0.222,1.202c0,0.503,0.088,0.94,0.269,1.313c0.179,0.371,0.423,0.682,0.727,0.934
		c0.306,0.25,0.665,0.438,1.078,0.566C198.327,35.105,198.766,35.168,199.234,35.168 M212.124,28.107
		c-0.141,0.601-0.331,1.166-0.541,1.709c-0.509,1.317-1.147,2.49-1.912,3.52c0.61,0.622,1.185,1.217,1.724,1.777
		c0.54,0.563,1.022,1.064,1.445,1.501c0.427,0.436,0.773,0.798,1.042,1.077c-0.344,0.387-1.215,0.641-2.561,0.724
		c-1.425,0.086-3.014-0.21-3.014-0.21c-0.205-0.265-0.434-0.537-0.684-0.817c-0.252-0.283-0.587-0.65-1.007-1.106
		c-1.163,0.804-2.406,1.398-3.737,1.788c-1.329,0.388-2.675,0.583-4.038,0.583c-1.105,0-2.109-0.151-3.021-0.458
		c-0.908-0.305-1.688-0.735-2.337-1.293c-0.646-0.556-1.149-1.233-1.509-2.029c-0.356-0.797-0.537-1.679-0.537-2.649
		c0-0.825,0.129-1.571,0.386-2.236c0.257-0.664,0.602-1.267,1.033-1.805c0.433-0.539,0.928-1.028,1.491-1.465
		c0.564-0.438,1.149-0.84,1.76-1.213c-0.455-0.442-0.877-0.886-1.267-1.328c-0.388-0.443-0.726-0.905-1.015-1.382
		c-0.285-0.479-0.512-0.985-0.674-1.52c-0.16-0.532-0.239-1.11-0.239-1.734c0-0.908,0.159-1.724,0.483-2.442
		c0.322-0.718,0.789-1.327,1.401-1.83c0.611-0.503,1.356-0.887,2.234-1.15c0.88-0.264,1.876-0.395,2.992-0.395
		c1.114,0,2.112,0.119,2.999,0.359c0.886,0.238,1.636,0.595,2.255,1.068c0.615,0.474,1.092,1.061,1.428,1.761
		c0.337,0.699,0.503,1.512,0.503,2.432c0,0.816-0.126,1.549-0.379,2.2c-0.251,0.654-0.591,1.242-1.021,1.771
		c-0.433,0.526-0.93,1.005-1.491,1.437c-0.562,0.43-1.149,0.838-1.761,1.222c0.588,0.598,1.257,1.286,2.011,2.066
		c0.755,0.777,1.553,1.598,2.392,2.459c0.394-0.695,0.719-1.467,0.978-2.316c0.257-0.85,0.429-1.784,0.511-2.803
		C208.448,25.379,212.743,25.477,212.124,28.107"/>
	<path fill="#004892" d="M90.267,23.549c-1.106,0-2.071,0.529-2.901,1.584v8.438c1.005,0.628,1.87,0.94,2.599,0.94
		c1.836,0,2.751-1.932,2.751-5.802c0-1.731-0.226-3.023-0.678-3.878C91.586,23.979,90.997,23.549,90.267,23.549 M91.943,19.029
		c2.048,0,3.641,0.881,4.784,2.637c1.143,1.76,1.714,4.163,1.714,7.215c0,3.05-0.718,5.455-2.147,7.213
		c-1.43,1.759-3.215,2.636-5.347,2.636c-1.13,0-2.325-0.289-3.581-0.865V43.1c0,1.229-0.238,2.102-0.715,2.619
		c-0.479,0.513-1.269,0.77-2.371,0.77h-2.186l-0.265-0.263V19.595l0.265-0.263H83.6c1.407,0,2.448,0.615,3.126,1.845
		C88.158,19.746,89.897,19.029,91.943,19.029"/>
	<path fill="#004892" d="M117.952,25.887v7.834c0,1.606,0.29,2.852,0.866,3.729c-0.979,0.804-2.077,1.205-3.295,1.205
		c-1.22,0-2.053-0.287-2.505-0.864s-0.678-1.458-0.678-2.637V26.94c0-0.93-0.125-1.6-0.377-2.015
		c-0.253-0.415-0.703-0.622-1.355-0.622c-1.055,0-2.071,0.478-3.051,1.432v12.619c-0.781,0.15-1.678,0.226-2.694,0.226
		s-1.953-0.075-2.806-0.226v-27.46l0.263-0.264h2.186c1.104,0,1.89,0.257,2.354,0.772c0.465,0.515,0.698,1.387,0.698,2.616v7.385
		c1.707-1.432,3.413-2.149,5.121-2.149c1.709,0,3.014,0.604,3.917,1.808C117.501,22.27,117.952,23.877,117.952,25.887"/>
	<path fill="#004892" d="M138.067,20.161l-4.709,17.664c-0.777,2.939-1.826,5.137-3.145,6.593c-1.318,1.457-3.311,2.185-5.97,2.185
		c-1.507,0-2.99-0.252-4.444-0.755v-0.696c0-0.337,0.093-0.873,0.282-1.601c0.188-0.729,0.47-1.293,0.849-1.692
		c1.303,0.376,2.408,0.562,3.313,0.562c1.882,0,3.149-1.092,3.804-3.276l0.151-0.529c-2.111-0.047-3.365-0.826-3.768-2.334
		l-4.483-16.271c1.106-0.501,2.142-0.755,3.108-0.755s1.664,0.179,2.091,0.529c0.427,0.353,0.755,0.978,0.979,1.884l1.884,7.458
		c0.201,0.728,0.503,2.397,0.903,5.008c0.026,0.177,0.138,0.265,0.341,0.265l3.392-14.802c0.625-0.152,1.446-0.228,2.467-0.228
		c1.015,0,1.938,0.14,2.766,0.415L138.067,20.161z"/>
	<path fill="#004892" d="M139.083,37.034c0.024-0.602,0.193-1.28,0.508-2.033c0.314-0.754,0.673-1.33,1.073-1.732
		c1.958,1.028,3.706,1.543,5.237,1.543c0.752,0,1.338-0.131,1.749-0.394c0.415-0.266,0.624-0.609,0.624-1.036
		c0-0.803-0.605-1.418-1.809-1.845l-2.071-0.755c-3.164-1.154-4.745-3.025-4.745-5.611c0-1.885,0.651-3.377,1.956-4.484
		c1.306-1.104,3.053-1.657,5.237-1.657c1.078,0,2.271,0.152,3.575,0.452c1.31,0.303,2.401,0.668,3.28,1.095
		c0.025,0.677-0.12,1.418-0.434,2.223c-0.315,0.803-0.695,1.367-1.149,1.693c-2.06-0.929-3.794-1.394-5.197-1.394
		c-0.553,0-0.98,0.127-1.281,0.375c-0.299,0.252-0.451,0.578-0.451,0.981c0,0.628,0.526,1.143,1.582,1.543l2.298,0.829
		c3.339,1.23,5.008,3.228,5.008,5.988c0,1.86-0.69,3.342-2.069,4.445c-1.385,1.106-3.33,1.659-5.839,1.659
		C143.654,38.92,141.293,38.291,139.083,37.034"/>
	<path fill="#004892" d="M157.126,14.21c0-0.728,0.136-1.432,0.412-2.111c0.706-0.375,1.627-0.563,2.77-0.563
		s2.026,0.188,2.658,0.563c0.272,0.68,0.411,1.384,0.411,2.111c0,0.729-0.139,1.431-0.411,2.108
		c-0.632,0.376-1.548,0.564-2.753,0.564c-1.204,0-2.097-0.188-2.675-0.564C157.262,15.641,157.126,14.938,157.126,14.21
		 M163.868,23.776v14.577c-0.754,0.151-1.671,0.227-2.75,0.227s-2.032-0.075-2.863-0.227V25.698c0-1.433-0.591-2.147-1.77-2.147
		h-0.529c-0.15-0.628-0.225-1.281-0.225-1.959s0.074-1.33,0.225-1.959c1.256-0.124,2.322-0.188,3.203-0.188h0.754
		c1.23,0,2.196,0.39,2.9,1.168C163.515,21.391,163.868,22.446,163.868,23.776"/>
	<path fill="#004892" d="M173.717,24.717c-0.389,1.005-0.584,2.425-0.584,4.258s0.195,3.246,0.584,4.237
		c0.388,0.993,1.148,1.489,2.279,1.489c1.129,0,1.889-0.496,2.278-1.489c0.389-0.991,0.584-2.404,0.584-4.237
		s-0.195-3.253-0.584-4.258c-0.39-1.004-1.149-1.507-2.278-1.507C174.866,23.21,174.105,23.713,173.717,24.717 M181.909,21.216
		c1.808,1.808,2.715,4.389,2.715,7.74s-0.907,5.931-2.715,7.742c-1.479,1.479-3.451,2.222-5.912,2.222
		c-2.463,0-4.433-0.743-5.913-2.222c-1.811-1.812-2.712-4.391-2.712-7.742s0.901-5.933,2.712-7.74
		c1.48-1.457,3.45-2.187,5.913-2.187C178.458,19.029,180.429,19.759,181.909,21.216"/>
	<path fill="#004892" d="M229.933,27.769v-0.338c0-1.406-0.144-2.462-0.434-3.164c-0.289-0.702-0.903-1.055-1.845-1.055
		c-0.94,0-1.605,0.458-1.995,1.374c-0.393,0.918-0.585,2.379-0.585,4.389s0.282,3.435,0.85,4.275
		c0.562,0.843,1.436,1.261,2.617,1.261c1.18,0,2.561-0.539,4.141-1.619c0.453,0.252,0.893,0.696,1.32,1.339
		c0.428,0.639,0.703,1.236,0.826,1.787c-0.853,0.881-1.931,1.583-3.238,2.11c-1.305,0.526-2.648,0.792-4.031,0.792
		c-2.636,0-4.663-0.891-6.081-2.675c-1.418-1.783-2.129-4.276-2.129-7.479c0-3.201,0.816-5.624,2.449-7.269s3.559-2.467,5.783-2.467
		c2.221,0,4.009,0.578,5.365,1.732c1.355,1.154,2.034,2.635,2.034,4.444c0,0.903-0.242,1.589-0.733,2.051
		c-0.49,0.468-1.183,0.699-2.073,0.699C231.283,27.958,230.535,27.895,229.933,27.769"/>
	<path fill="#004892" d="M244.511,34.738c0.98,0,1.958-0.416,2.939-1.244v-3.127c-0.555-0.023-1.308-0.035-2.261-0.035
		c-1.683,0-2.524,0.84-2.524,2.522c0,0.527,0.168,0.973,0.511,1.339C243.512,34.557,243.959,34.738,244.511,34.738 M254.117,35.754
		c-0.1,0.502-0.332,1.042-0.698,1.619c-0.364,0.579-0.723,1.005-1.072,1.282c-1.731-0.075-3.039-0.742-3.918-1.995
		c-1.606,1.505-3.384,2.258-5.329,2.258c-1.947,0-3.417-0.576-4.406-1.732c-0.994-1.154-1.49-2.473-1.49-3.955
		c0-2.134,0.712-3.753,2.131-4.858c1.417-1.104,3.183-1.657,5.291-1.657c0.828,0,1.771,0.037,2.826,0.112v-0.828
		c0-1.658-0.856-2.485-2.564-2.485c-1.08,0-2.95,0.4-5.611,1.203c-0.753-0.878-1.205-2.184-1.356-3.916
		c1.183-0.501,2.582-0.904,4.203-1.204c1.618-0.303,3.054-0.452,4.311-0.452c1.884,0,3.458,0.521,4.727,1.562
		c1.269,1.041,1.903,2.654,1.903,4.841v7.683C253.062,34.411,253.412,35.252,254.117,35.754"/>
	<path fill="#004892" d="M256.527,22.193c0.099-0.502,0.326-1.04,0.677-1.617c0.352-0.579,0.704-1.005,1.058-1.282
		c2.232,0.226,3.767,1.355,4.594,3.39c0.954-2.234,2.536-3.352,4.747-3.352c0.828,0,1.644,0.102,2.447,0.301
		c0,0.729-0.128,1.602-0.378,2.617c-0.251,1.018-0.589,1.891-1.018,2.62c-0.527-0.179-1.152-0.289-1.882-0.342
		c-1.331,0-2.411,0.68-3.238,2.035v11.791c-0.753,0.15-1.672,0.224-2.751,0.224c-1.078,0-2.033-0.073-2.862-0.224V26.075
		C257.92,24.189,257.454,22.897,256.527,22.193"/>
	<path fill="#004892" d="M281.611,23.982c-0.427-0.64-1.085-0.959-1.975-0.959c-0.892,0-1.543,0.314-1.96,0.941
		c-0.413,0.628-0.659,1.607-0.736,2.938h5.313v-0.452C282.253,25.448,282.039,24.623,281.611,23.982 M286.96,30.782h-9.981
		c0.075,1.207,0.379,2.141,0.905,2.806c0.528,0.666,1.458,0.998,2.789,0.998s2.913-0.388,4.745-1.165
		c0.776,0.751,1.294,1.87,1.542,3.35c-2.032,1.432-4.495,2.147-7.38,2.147c-1.558,0-2.902-0.27-4.031-0.809
		c-1.131-0.539-1.996-1.288-2.601-2.243c-1.103-1.832-1.657-4.178-1.657-7.041c0-2.862,0.691-5.212,2.073-7.045
		s3.374-2.751,5.988-2.751c2.61,0,4.613,0.748,6.009,2.242c1.393,1.495,2.09,3.409,2.09,5.744
		C287.452,28.322,287.287,29.576,286.96,30.782"/>
	<path fill="#004892" d="M80.94,64.169l0.943-12.079c0.4-0.07,0.901-0.107,1.5-0.107c0.6,0,1.087,0.037,1.466,0.107l1.438,5.081
		c0.319,1.124,0.55,2.118,0.691,2.981h0.108c0.141-0.863,0.372-1.857,0.691-2.981l1.438-5.081c0.404-0.07,0.895-0.107,1.475-0.107
		s1.072,0.037,1.475,0.107l0.942,12.079c-0.298,0.08-0.655,0.124-1.075,0.124s-0.778-0.024-1.076-0.07l-0.354-5.897
		c-0.071-1.091-0.118-2.357-0.142-3.8h-0.107l-2.165,7.849c-0.381,0.061-0.771,0.088-1.174,0.088c-0.402,0-0.781-0.027-1.137-0.088
		l-2.167-7.849h-0.106c-0.061,1.762-0.106,3.028-0.143,3.8l-0.371,5.897c-0.286,0.046-0.641,0.07-1.067,0.07
		S81.236,64.249,80.94,64.169"/>
	<path fill="#004892" d="M103.357,61.307l-0.017,1.051c0.497-0.025,0.904-0.037,1.225-0.037h4.404c0,0.368-0.013,0.646-0.036,0.835
		c-0.129,0.723-0.616,1.084-1.456,1.084h-5.062c-0.4,0-0.72-0.121-0.95-0.365c-0.23-0.241-0.345-0.577-0.345-1.003V52.196
		l0.123-0.125h7.336c0.061,0.284,0.088,0.576,0.088,0.881c0,0.3-0.059,0.644-0.176,1.02h-5.15l0.017,1.208v1.989
		c0.284-0.012,0.662-0.019,1.136-0.019h3.091c0.083,0.286,0.125,0.595,0.125,0.934c0,0.338-0.042,0.649-0.125,0.932h-3.091
		c-0.474,0-0.852-0.003-1.136-0.015V61.307z"/>
	<path fill="#004892" d="M123.101,61.05c0.183-0.453,0.307-0.912,0.372-1.367c0.064-0.456,0.098-0.971,0.098-1.545
		c0-0.576-0.033-1.09-0.098-1.545c-0.065-0.457-0.189-0.912-0.372-1.368c-0.184-0.456-0.473-0.812-0.861-1.065
		c-0.392-0.255-0.937-0.38-1.635-0.38c-0.7,0-1.292-0.01-1.777-0.021v8.741h1.972c0.569,0,1.049-0.128,1.44-0.382
		C122.628,61.861,122.917,61.505,123.101,61.05 M125.498,55.074c0.268,0.853,0.399,1.873,0.399,3.063s-0.132,2.216-0.399,3.072
		c-0.266,0.86-0.771,1.589-1.517,2.194c-0.368,0.295-0.852,0.518-1.449,0.665c-0.599,0.15-1.204,0.222-1.82,0.222
		s-1.954-0.023-4.013-0.07l-0.127-0.106V52.16l0.127-0.107c1.36-0.045,2.733-0.07,4.12-0.07c0.543,0,1.114,0.079,1.713,0.232
		c0.598,0.154,1.081,0.379,1.449,0.673C124.726,53.493,125.232,54.222,125.498,55.074"/>
	<path fill="#004892" d="M133.606,64.204V52.072c0.283-0.06,0.657-0.09,1.118-0.09c0.462,0,0.842,0.03,1.138,0.09v12.132
		c-0.296,0.059-0.676,0.089-1.138,0.089C134.263,64.293,133.889,64.263,133.606,64.204"/>
	<path fill="#004892" d="M150.747,56.512V56.37c0-0.746-0.177-1.389-0.524-1.926c-0.349-0.54-0.931-0.811-1.749-0.811
		c-1.705,0-2.558,1.521-2.558,4.566c0,1.374,0.239,2.43,0.719,3.169c0.48,0.741,1.175,1.112,2.088,1.112
		c0.909,0,1.93-0.438,3.054-1.315c0.239,0.166,0.464,0.39,0.676,0.667c0.214,0.277,0.35,0.541,0.409,0.789
		c-0.533,0.533-1.209,0.973-2.025,1.314c-0.818,0.345-1.664,0.516-2.541,0.516c-0.876,0-1.627-0.178-2.255-0.532
		c-0.629-0.356-1.118-0.842-1.475-1.458c-0.687-1.171-1.028-2.6-1.028-4.279c0-2.098,0.469-3.682,1.409-4.752
		c0.944-1.072,2.1-1.608,3.473-1.608c1.375,0,2.467,0.349,3.277,1.039c0.812,0.691,1.216,1.532,1.216,2.515
		c0,0.841-0.423,1.26-1.277,1.26C151.326,56.636,151.031,56.596,150.747,56.512"/>
	<path fill="#004892" d="M162.683,59.604l0.834-0.019h1.583c0.034,0,0.151,0.005,0.346,0.01c0.195,0.006,0.339,0.009,0.434,0.009
		l-0.603-1.991c-0.331-1.054-0.65-2.184-0.96-3.391h-0.091c-0.142,0.721-0.396,1.68-0.764,2.877L162.683,59.604z M166.43,61.415
		l-0.924,0.019h-2.47l-0.904-0.019l-0.87,2.806c-0.239,0.059-0.574,0.091-1.012,0.091c-0.44,0-0.787-0.055-1.05-0.161l-0.087-0.106
		l3.977-11.972c0.391-0.06,0.842-0.089,1.351-0.089c0.511,0,0.925,0.034,1.244,0.106l3.925,11.972
		c-0.343,0.188-0.738,0.286-1.18,0.286c-0.444,0-0.764-0.087-0.962-0.26c-0.194-0.172-0.362-0.486-0.504-0.949L166.43,61.415z"/>
	<path fill="#004892" d="M180.587,62.284h3.357c0,0.393-0.019,0.676-0.055,0.854c-0.129,0.734-0.619,1.101-1.474,1.101h-4.387
		c-0.405,0-0.722-0.121-0.961-0.365c-0.235-0.241-0.353-0.576-0.353-1.003V52.092l0.125-0.109h0.832
		c0.451,0,0.784,0.114,0.995,0.339c0.216,0.224,0.319,0.592,0.319,1.1v8.918C179.557,62.302,180.09,62.284,180.587,62.284"/>
	<path fill="#004892" d="M206.948,56.512V56.37c0-0.746-0.177-1.389-0.526-1.926c-0.347-0.54-0.932-0.811-1.748-0.811
		c-1.706,0-2.557,1.521-2.557,4.566c0,1.374,0.238,2.43,0.716,3.169c0.484,0.741,1.177,1.112,2.091,1.112
		c0.91,0,1.929-0.438,3.054-1.315c0.238,0.166,0.464,0.39,0.676,0.667c0.211,0.277,0.35,0.541,0.409,0.789
		c-0.535,0.533-1.209,0.973-2.025,1.314c-0.819,0.345-1.664,0.516-2.54,0.516c-0.878,0-1.628-0.178-2.256-0.532
		c-0.628-0.356-1.121-0.842-1.475-1.458c-0.687-1.171-1.031-2.6-1.031-4.279c0-2.098,0.471-3.682,1.412-4.752
		c0.943-1.072,2.099-1.608,3.473-1.608s2.468,0.349,3.276,1.039c0.813,0.691,1.217,1.532,1.217,2.515c0,0.841-0.426,1.26-1.276,1.26
		C207.526,56.636,207.231,56.596,206.948,56.512"/>
	<path fill="#004892" d="M218.777,61.307l-0.019,1.051c0.497-0.025,0.905-0.037,1.228-0.037h4.402c0,0.368-0.01,0.646-0.034,0.835
		c-0.13,0.723-0.617,1.084-1.457,1.084h-5.062c-0.402,0-0.72-0.121-0.95-0.365c-0.232-0.241-0.346-0.577-0.346-1.003V52.196
		l0.124-0.125h7.335c0.062,0.284,0.088,0.576,0.088,0.881c0,0.3-0.058,0.644-0.177,1.02h-5.151l0.019,1.208v1.989
		c0.282-0.012,0.662-0.019,1.136-0.019h3.091c0.085,0.286,0.125,0.595,0.125,0.934c0,0.338-0.04,0.649-0.125,0.932h-3.091
		c-0.474,0-0.854-0.003-1.136-0.015V61.307z"/>
	<path fill="#004892" d="M241.049,51.982l0.107,0.107v12.079c-0.332,0.08-0.763,0.124-1.295,0.124c-0.533,0-1.002-0.032-1.403-0.089
		l-3.395-7.033c-0.295-0.605-0.656-1.426-1.081-2.47l-0.073,0.017c0.12,1.48,0.177,3.057,0.177,4.726v4.761
		c-0.307,0.057-0.658,0.089-1.055,0.089c-0.397,0-0.746-0.032-1.038-0.089V52.108c0.331-0.084,0.759-0.126,1.287-0.126
		c0.526,0,0.984,0.03,1.374,0.089l3.359,7.016c0.306,0.642,0.698,1.51,1.171,2.613l0.053-0.017
		c-0.117-1.683-0.177-3.271-0.177-4.763v-3.553c0-0.496,0.095-0.852,0.284-1.065c0.188-0.213,0.51-0.32,0.961-0.32H241.049z"/>
	<path fill="#004892" d="M253.554,53.937l0.019,1.313v8.954c-0.308,0.059-0.688,0.087-1.136,0.087c-0.449,0-0.824-0.028-1.12-0.087
		V53.937l-1.065,0.017h-2.008c-0.058-0.272-0.088-0.581-0.088-0.931s0.03-0.665,0.088-0.95h8.404
		c0.08,0.297,0.122,0.605,0.122,0.932c0,0.324-0.1,0.566-0.294,0.719c-0.195,0.155-0.505,0.23-0.933,0.23h-0.905l-1.065-0.017
		H253.554z"/>
	<path fill="#004892" d="M265.918,61.307l-0.021,1.051c0.502-0.025,0.907-0.037,1.227-0.037h4.406c0,0.368-0.012,0.646-0.034,0.835
		c-0.131,0.723-0.617,1.084-1.458,1.084h-5.063c-0.4,0-0.717-0.121-0.948-0.365c-0.231-0.241-0.346-0.577-0.346-1.003V52.196
		l0.124-0.125h7.336c0.06,0.284,0.087,0.576,0.087,0.881c0,0.3-0.058,0.644-0.175,1.02h-5.155l0.021,1.208v1.989
		c0.284-0.012,0.662-0.019,1.136-0.019h3.092c0.083,0.286,0.124,0.595,0.124,0.934c0,0.338-0.041,0.649-0.124,0.932h-3.092
		c-0.474,0-0.852-0.003-1.136-0.015V61.307z"/>
	<path fill="#004892" d="M281.373,53.725v3.995c0.852-0.022,1.425-0.034,1.725-0.034c1.313,0,1.968-0.657,1.968-1.973
		c0-1.314-0.654-1.972-1.968-1.972C282.324,53.741,281.75,53.736,281.373,53.725 M287.394,55.713c0,0.794-0.218,1.478-0.65,2.051
		c-0.431,0.576-0.96,0.977-1.589,1.201c0.579,0.2,1.013,0.716,1.295,1.544l0.694,1.865c0.225,0.604,0.503,1.031,0.835,1.279
		c-0.332,0.463-0.843,0.694-1.529,0.694c-0.39,0-0.683-0.105-0.878-0.314c-0.195-0.206-0.375-0.552-0.543-1.037l-0.798-2.187
		c-0.155-0.427-0.354-0.75-0.596-0.977c-0.243-0.225-0.606-0.335-1.093-0.335h-1.17v4.706c-0.298,0.059-0.674,0.089-1.129,0.089
		c-0.457,0-0.827-0.03-1.11-0.089V52.16l0.124-0.107c1.87-0.045,3.197-0.07,3.98-0.07c1.265,0,2.274,0.32,3.027,0.96
		C287.016,53.582,287.394,54.504,287.394,55.713"/>
</g>
</svg>
